<svg xmlns="http://www.w3.org/2000/svg" xmlns:xlink="http://www.w3.org/1999/xlink" viewBox="0 0 535 163">
  <path id="6c26a" d="M311.494 309.82c24.183 0 33.558 15.408 33.558 31.226s-9.375 31.227-33.558 31.227h-22.418v34.909h-21.33v-97.363zm-5.842 45.816c9.918 0 18.75-2.181 18.75-14.59 0-12.409-8.832-14.59-18.75-14.59h-16.576v29.18zM626 389.182v18h-68.612v-97.363h21.332v79.363zM399.618 309.82c26.788 0 48.503 21.796 48.503 48.682 0 26.885-21.715 48.68-48.503 48.68s-48.503-21.795-48.503-48.68c0-26.886 21.715-48.682 48.503-48.682 0 0-26.788 0 0 0zm0 75.996c15.03 0 27.214-12.23 27.214-27.314 0-15.086-12.184-27.315-27.214-27.315s-27.215 12.229-27.215 27.315c0 15.085 12.184 27.314 27.215 27.314 0 0-15.03 0 0 0zm102.96-75.996c26.789 0 48.503 21.796 48.503 48.682 0 26.885-21.714 48.68-48.503 48.68-26.788 0-48.504-21.795-48.504-48.68 0-26.886 21.716-48.682 48.504-48.682 0 0-26.789 0 0 0zm0 75.996c15.03 0 27.215-12.23 27.215-27.314 0-15.086-12.185-27.315-27.215-27.315s-27.214 12.229-27.214 27.315c0 15.085 12.184 27.314 27.214 27.314 0 0-15.03 0 0 0zm-306.867-32.672c15.9 1.218 27.825 5.625 35.775 13.222 7.95 7.602 11.925 17.326 11.925 29.18 0 13.985-6.02 24.889-18.058 32.715-12.038 7.83-26.841 11.74-44.406 11.74H91v-1.596c6.964-7.142 11.243-11.74 12.833-13.792 1.59-2.052 2.386-4.217 2.386-6.497V298.886c0-2.28-.795-4.445-2.386-6.497-1.59-2.052-5.87-6.647-12.833-13.792V277h90.175c19.08 0 33.049 3.955 41.907 11.855 8.858 7.905 13.287 17.252 13.287 28.04 0 9.426-3.446 17.177-10.335 23.254-6.892 6.08-17 10.259-30.323 12.538v.456s-15.9-1.22 0 0zm-43.61-1.824h12.492c8.025 0 14.46-2.924 19.307-8.777 4.844-5.848 7.268-13.941 7.268-24.278 0-10.334-2.35-18.541-7.04-24.622-4.696-6.076-11.13-9.118-19.308-9.118H152.1zm15.218 81.158c18.473 0 27.711-12.385 27.711-37.16 0-24.164-9.618-36.246-28.847-36.246H152.1v73.406z"/>
  <g transform="translate(-91 -277)">
    <use fill="#fff" xlink:href="#6c26a"/>
  </g>
</svg>
